<svg xmlns="http://www.w3.org/2000/svg" xml:space="preserve" width="448.82758" height="100" viewBox="0 0 448.82758 100"><path d="M1301.367 1555.428c.383 1.115 7.506 17.237 8.594 20.295 0 0 2.17 4.12 6.103 11.011 1.732 3.674 2.494 4.171 3.585 5.678 8.367 5.938 9.02 8.325 9.02 8.325.217.229.544.665.769.115 0 0-.225-1.44-.44-2.94 0 0-1.188-1.176-3.49-3.566 0 0-3.357-2.17-7.055-7.11 0 0-3-4.786-5.124-8.451-1.083-1.391-3.264-6.503-4.886-11.282-1.365-5.18-3.755-10.291-4.288-12.075h17.538c5.421 0 9.853 4.541 9.853 10.088v54.817c0 5.561-4.432 10.095-9.853 10.095h-55.283c-5.43 0-9.864-4.534-9.864-10.095v-54.817c0-5.547 4.435-10.088 9.864-10.088zm19.794 20.585c-.8-1.012-4.614-2.001-4.614-2.001 1.516-1.117 4.087-3.066 4.527-5.276.442-2.186.25-4.797.25-4.797-2.871.943-6.241 2.334-7.498 5.338-1.695 3.172-1.695 5.895-1.695 5.895s1.378.16 3.165 2.946c1.802 2.388 2.93 3.617 6.356 4.178 1.746.434 2.834.651 2.834.651-.602-2.5-1.474-5.841-3.325-6.934m-22.446-9.284c-1.637.043-3.646.444-3.646.444.698 1.383 2.768 3.384 3.852 3.945-1.731.61-3.572.996-5.65 3.496-2.395 2.226-3.743 3.503-3.743 3.503s3.426 1.059 7.394.884c2.545-.997 6.57-5.443 8.414-6.832.503-.386 1.31-.943.438-1.497-1.569-.46-2.283-.34-3.098-1.176-1.69-1.644-2.317-2.897-3.961-2.767m-15.505 5.553c-.314-2.222-.98-4.17-2.39-5.342-1.148-1.328-3.48-3.67-3.092-6.054-2.447 2.787-5.882 4.557-10.51 6.89-3.152 2.78-4.399 4.007-5.487 8.898 1.409.166 2.765 0 7.34-2.56 1.315-.664 2.394-.887 2.613-.784.06 1.343-.047 2.342.421 3.51.94 1.387 1.762 2.222 1.762 2.222s2.979-1.612 4.23-6.062c1.196.779 2.992 2.895 3.268 3.506.866 1.001 1.845 1.721 2.389 1.721-.163-1.45-.544-3.502-.544-5.945m-2.494 13.836c-1.322-.993-3.491-2.392-6.038-3.104-1.903-.395-3.655-.116-5.223 1.543-1.236 1.044-1.796 1.612-4.355 2.978-.365.371.582.513.582.513s1.227.815 2.032.594l.874-.466c.545-.612 1.662.02 1.737.057 1.079.965 3.703 3.278 3.703 3.278.916.335 3.47.335 4.56 1.05.216-.6-1.09-4.504-1.91-5.723.49-.44 3.16-.551 4.038-.72m-14.634 25.68c3.955 3.452 7.822 6.898 17.615 9.674 4.314.442 11.928.083 14.614-1.178-6.024-5.044-12.767-8.532-15.158-9.05-1.005-.763-1.184-1.327-1.184-1.327 1.326-.375 6.981.74 8.14 1.326.224-1.182-1.844-4.667-1.844-4.667-6.117.675-7.577-.52-7.577-.52.148-.924 5.874-2.807 9.207-4.482 3.625-2.107 5.81-3.524 9.256-10.219.028-.784-14.258 4.027-23.252 9.447-3.47 3.55-8.086 7.116-9.489 7.447-1.6 1.072-2.938 1.001-4.46 1.338 0 0 .543.995 4.132 2.212m42.415-12.386c1.854-.564 3.147-1.894 4.027-3.119-.393 5.28 2.826 7.837 2.826 7.837s1.245-.383 2.713-4.163c0 0 .608-4.23-.271-7.733 0 0-2.993-4.44-6.902-6.222 0 0-.929-.617-2.995-.726-.535 1.833.436 4.894 2.119 7.171-.148 0-1.24.607-3.266.836-1.458.498-4.5 2.777-6.41 4.886 1.201.118 5.228 2.12 8.16 1.233m-.286 19.452c.561.606.336 2.102.336 2.102.99 0 1.318-1.042 2.342-1.877.318-.28.973-.34 3.041-.34 1.152-.165 3.315-.437 4.627-1.769 0 0-1.312-.334-2.727-.732-1.612-.616-2.772-1.105-2.871-2.94 0 0 1.143-1.89 1.888-3.286 0 0-.783.255-1.519.492-.422.116-.704-.375-1.133-.928 0 0-.333 2.046-1.257 3.333-.874 1.168-1.841 1.111-2.827.833-.328-.059-2.822-1.616-4.724-3.122.766 6.452 3.972 6.626 4.824 8.234m13.663-12.003s1.622-1.841 2.664-3.842c.162-.777.106-2.448-.274-3.38 0 0-.482-1.29-.663-2.454-1.182 1.164-2.44 3.167-2.923 4.664-.173 2.954 1.196 5.012 1.196 5.012M1381.864 1600.02h-27.495v-3.988h23v-3.321h-22.982v-6.555c0-1.468.257-2.496.77-3.092.513-.596 1.436-.894 2.756-.894h24.81v3.986h-22.477c-.17 0-.296.028-.357.071-.057.051-.087.154-.087.314v2.222h22.062c.29 0 .513.081.655.244.148.156.229.383.229.679v9.318c0 .256-.087.485-.247.696a.762.762 0 0 1-.637.314M1355.3 1602.197h5.547v5.554h8.242v3.274h-22.029v-3.274h8.24zM1355.823 1622.423c.594.693 1.34 1.052 2.25 1.052.882 0 1.622-.344 2.224-1.03.603-.683.903-1.543.903-2.587 0-1.072-.3-1.956-.903-2.654-.602-.695-1.342-1.042-2.224-1.042-.91 0-1.656.339-2.25 1.02-.582.681-.874 1.56-.874 2.63 0 1.048.292 1.915.874 2.61m-3.565-7.917c.706-.667 1.553-1.182 2.555-1.545.997-.358 2.086-.543 3.26-.543a9.47 9.47 0 0 1 3.218.543 7.725 7.725 0 0 1 2.6 1.545 7.506 7.506 0 0 1 1.74 2.348c.429.903.637 1.89.637 2.958 0 1.049-.208 2.016-.636 2.914a7.51 7.51 0 0 1-1.742 2.354 8.009 8.009 0 0 1-2.6 1.565c-1 .38-2.073.562-3.217.562-1.174 0-2.263-.183-3.26-.562-1.002-.377-1.85-.898-2.555-1.565a7.139 7.139 0 0 1-1.717-2.354 6.897 6.897 0 0 1-.618-2.914c0-1.068.206-2.055.618-2.958a7.135 7.135 0 0 1 1.717-2.348" style="fill:#006863;fill-opacity:1;fill-rule:nonzero;stroke:none;stroke-width:2.02752" transform="matrix(1.33333 0 0 -1.33333 -1675.395 2173.903)"/><path d="M1370.277 1623.727c.265-.347.395-.765.395-1.257v-16.204h-6.43v-2.49h6.43v-1.58h4.803V1626h-6.668v-1.748h.101c.65 0 1.107-.172 1.369-.525M1376.07 1624.251h.112c.645 0 1.1-.172 1.362-.525.264-.347.4-.764.4-1.257v-20.271h4.803v23.801h-6.677zM1464.315 1600.02h-27.491v-3.988h23.004v-3.321h-22.986v-6.555c0-1.468.262-2.496.774-3.092.505-.596 1.434-.894 2.752-.894h24.815v3.986h-22.477c-.175 0-.3.028-.357.071-.06.051-.09.154-.09.314v2.222h22.056c.292 0 .515.081.663.244.148.156.225.383.225.679v9.318c0 .256-.085.485-.247.696a.772.772 0 0 1-.641.314M1439.525 1616.1c.79 1.063 1.726 1.598 2.816 1.598 1.111 0 2.046-.541 2.788-1.616.757-1.082 1.13-2.333 1.13-3.747 0-1.417-.402-2.647-1.19-3.698-.791-1.042-1.718-1.565-2.778-1.565-1.12 0-2.052.527-2.814 1.594-.763 1.064-1.152 2.317-1.152 3.769 0 1.38.403 2.607 1.2 3.666m2.73-13.325a8.91 8.91 0 0 1 3.602.744 9.44 9.44 0 0 1 3.003 2.054 9.966 9.966 0 0 1 2.023 3.063c.5 1.176.749 2.443.749 3.798 0 .963-.14 1.887-.42 2.773a11.18 11.18 0 0 1-1.123 2.49h4.947v4.082h-9.968v5.097h-7.443v-1.65h.7c.241 0 .484-.142.726-.43.253-.29.38-.629.38-1.014v-2.003h-9.885v-4.082h4.864a9.536 9.536 0 0 1-1.54-5.263c-.001-1.355.24-2.622.723-3.798a9.501 9.501 0 0 1 2.005-3.063 9.413 9.413 0 0 1 2.997-2.054 9.038 9.038 0 0 1 3.66-.744M1457.135 1624.012h.88c.586 0 1.03-.225 1.318-.675.302-.454.444-.919.444-1.405v-19.67h5.426V1626h-8.068zM1415.181 1624.012h.882c.584 0 1.028-.225 1.322-.675.288-.454.44-.919.44-1.405v-24.73h-22.045c-.175 0-.298.026-.357.07-.06.05-.091.157-.091.315v7.757h15.141c.29 0 .517.08.66.244.15.158.224.38.224.677v14.521c0 .256-.083.485-.247.696a.746.746 0 0 1-.637.316h-20.544v-3.99h16.055v-8.524h-16.07v-12.088c0-1.466.262-2.496.777-3.092.51-.596 1.431-.894 2.75-.894h24.384v-11.02h5.377v43.803h-8.02zM1497.666 1624.012h.878c.58 0 1.026-.225 1.32-.675.292-.454.44-.919.44-1.405v-24.73h-22.046c-.176 0-.298.026-.352.07-.061.05-.091.155-.091.315v7.757h15.14c.291 0 .514.08.664.244.142.158.221.38.221.677v14.521c0 .256-.08.485-.25.696a.751.751 0 0 1-.636.316h-20.545v-3.99h16.056v-8.524H1472.4v-12.088c0-1.466.26-2.496.775-3.092.509-.596 1.43-.894 2.747-.894h24.383v-11.02h5.377v43.803h-8.015zM1528.195 1597.171h-5.418v20.748h5.418zm18.943 28.83h-8.023v-1.99h.886c.576 0 1.026-.225 1.314-.675.298-.454.444-.918.444-1.405v-24.76h-8.096v20.748h4.264v3.884h-25.018v-3.884h4.406v-20.748h-4.406v-3.956h28.85v-11.02h5.379v24.895h5.722v3.93h-5.722zM1588.613 1590.71v16.173c0 .192.02.377.02.574v13.403c0 .256-.087.43-.247.64a.728.728 0 0 1-.62.313h-28.864v-3.955h23.424c.355 0 .592-.07.707-.215.126-.15.179-.38.179-.702v-9.866h-24.31v-3.953h24.31v-12.413h-28.856v-3.966h38.811v3.966zM1533.645 1566.612v6.862h.886c.557 0 1.025-.093 1.399-.284.375-.189.677-.456.904-.8.219-.321.373-.696.46-1.128.087-.43.13-.852.13-1.27a5.24 5.24 0 0 0-.106-1.011 3.063 3.063 0 0 0-.444-1.09c-.22-.362-.553-.668-.997-.911-.444-.246-1.018-.367-1.728-.367zm5.514 6.716c-.813.695-1.865 1.044-3.173 1.044h-6.881v-.777c.174-.02.383-.043.632-.08.246-.042.5-.108.746-.207.242-.1.396-.254.459-.455.07-.204.101-.436.101-.693v-11.206c0-.286-.045-.52-.134-.7a.866.866 0 0 0-.426-.415c-.117-.06-.33-.11-.626-.146a69.024 69.024 0 0 0-.685-.075v-.777H1535.676v.777c-.247 0-.525.032-.821.075-.302.047-.507.093-.627.146-.237.099-.39.247-.466.442a1.775 1.775 0 0 0-.117.673v4.706H1535.212c.669 0 1.305.095 1.9.286a4.947 4.947 0 0 1 1.648.894c.503.411.9.926 1.19 1.549.282.626.422 1.342.422 2.153 0 1.16-.404 2.088-1.213 2.786M1550.318 1564.054l1.561 4.264 1.58-4.264zm7.48-4.268a2.017 2.017 0 0 0-.457.422 2.359 2.359 0 0 0-.292.566l-4.036 11.001h-1.186c-.576-1.559-1.231-3.335-1.965-5.33a543.854 543.854 0 0 0-2.015-5.391 3.362 3.362 0 0 0-.367-.734 2.16 2.16 0 0 0-.53-.51 1.798 1.798 0 0 0-.545-.226 3.085 3.085 0 0 0-.562-.104v-.638h5.073v.638c-.45.022-.851.1-1.212.233-.359.132-.533.317-.533.558 0 .101.02.231.037.397.03.159.079.37.156.629.077.263.166.55.27.86.098.312.228.677.385 1.096h3.748l1.006-2.856c.02-.061.041-.13.053-.207 0-.08.02-.144.02-.199 0-.132-.146-.243-.436-.332a5.02 5.02 0 0 0-1.107-.179v-.638H1558.842v.638c-.142 0-.318.037-.53.093-.208.057-.38.128-.508.213M1567.643 1565.392v5.468h.949c.77 0 1.365-.229 1.784-.679.42-.454.63-1.065.63-1.835 0-.908-.263-1.628-.786-2.16-.521-.528-1.176-.794-1.963-.794zm7.25-5.66c-.198.107-.399.246-.602.417-.198.17-.427.434-.677.797-.576.813-1.06 1.506-1.456 2.074-.399.57-.892 1.271-1.49 2.104.428.134.827.292 1.186.479.36.188.667.413.925.67.274.279.486.601.632.98.142.38.211.813.211 1.306 0 .541-.105 1.01-.316 1.397-.21.383-.495.7-.848.939-.36.245-.768.423-1.22.535-.446.11-.93.166-1.444.166h-6.094v-.637c.16-.02.352-.043.581-.089a3.2 3.2 0 0 0 .552-.148c.213-.085.343-.206.403-.369a1.61 1.61 0 0 0 .085-.555v-9.221c0-.233-.036-.428-.113-.576a.758.758 0 0 0-.375-.343c-.102-.047-.278-.087-.54-.117-.261-.028-.46-.051-.594-.061v-.637H1569.326v.637c-.173 0-.391.028-.649.06a2.582 2.582 0 0 0-.54.118c-.204.087-.338.205-.399.367a1.47 1.47 0 0 0-.095.552v4.043h.74a91.017 91.017 0 0 0 1.898-2.687 81.81 81.81 0 0 0 1.957-3.09H1576.007v.637c-.152 0-.335.03-.558.073-.223.04-.41.099-.555.178M1592.611 1559.553a2.048 2.048 0 0 0-.553.176 4.835 4.835 0 0 0-.631.438 4.142 4.142 0 0 0-.728.779c-.639.841-1.24 1.638-1.806 2.378a73.505 73.505 0 0 1-2.154 2.66 32.899 32.899 0 0 1 1.894 2.052c.633.748 1.245 1.474 1.827 2.174.144.158.318.287.527.393.217.103.424.18.618.227.13.026.232.045.313.065.079.02.158.028.233.034.077 0 .144.02.199.02h.111v.637H1587.415v-.637c.08 0 .182-.02.31-.024a2.071 2.071 0 0 0 .79-.205c.1-.059.157-.132.157-.22 0-.254-.106-.54-.315-.869-.206-.326-.533-.76-.985-1.307a19.379 19.379 0 0 0-1.35-1.478 33.718 33.718 0 0 0-1.174-1.12v4.098c0 .2.032.381.101.55a.629.629 0 0 0 .391.358 3.5 3.5 0 0 0 .532.134c.24.05.437.077.596.083v.637h-5.534v-.637a3.601 3.601 0 0 0 1.103-.314c.191-.1.32-.22.386-.367.067-.152.097-.33.097-.533v-9.203c0-.215-.034-.4-.114-.554a.786.786 0 0 0-.369-.346c-.107-.047-.282-.083-.531-.106-.25-.024-.438-.045-.572-.055v-.639h5.533v.64c-.162 0-.375.037-.616.096-.247.061-.42.112-.511.152a.811.811 0 0 0-.385.38 1.208 1.208 0 0 0-.108.53v4.114a53.274 53.274 0 0 0 2.229-2.735 39.314 39.314 0 0 0 2.185-3.177h3.901v.639c-.148 0-.33.03-.551.073M1367.097 1574.372h-5.071v-.776c.68-.06 1.178-.17 1.482-.34.306-.17.456-.376.456-.623 0-.177-.02-.39-.055-.641a26.812 26.812 0 0 0-.302-1.397c-.22-.967-.505-2.127-.847-3.483-.282-1.121-.617-2.409-.99-3.848l-3.25 10.89h-1.47l-3.216-10.641c-.636 2.506-1.133 4.424-1.474 5.748-.389 1.48-.65 2.542-.804 3.185-.02.071-.028.168-.05.29a1.77 1.77 0 0 0-.025.29c0 .189.172.324.525.406.352.08.774.135 1.277.164v.776H1347.077v-.776c.18-.02.377-.055.6-.116.221-.063.408-.154.574-.28.196-.146.353-.306.47-.48.116-.175.199-.375.254-.602.243-.935.71-2.776 1.403-5.521.7-2.748 1.368-5.402 2.019-7.952h1.375l3.412 11.12 3.28-11.12h1.412c.713 2.548 1.38 4.945 2 7.195.615 2.251 1.16 4.22 1.625 5.907.103.37.229.66.37.867.143.21.33.394.559.554.18.126.385.223.6.3.215.077.407.122.57.128v.776h-.128zM1425.942 1571.595h-5.452v-.637c.167-.02.375-.05.635-.115.258-.063.472-.132.643-.2.235-.098.385-.214.444-.358.065-.138.095-.314.095-.523v-9.241c0-.24-.043-.426-.126-.562a.856.856 0 0 0-.414-.318c-.12-.05-.324-.083-.614-.108l-.663-.055v-.636H1426.45v.636c-.187 0-.416.04-.69.095-.267.057-.462.11-.583.156a.88.88 0 0 0-.422.365 1.084 1.084 0 0 0-.122.524v9.233c0 .196.034.377.11.54.073.161.22.277.434.35.184.061.393.107.64.146.246.04.452.065.633.07v.637h-.128zM1457.024 1574.372h-5.8v-.776c.184-.02.403-.06.653-.132.253-.073.466-.156.644-.251a.935.935 0 0 0 .444-.455c.083-.194.13-.41.13-.64v-4.708h-6.066v4.815c0 .243.036.464.111.67a.75.75 0 0 0 .452.437c.13.051.329.108.594.164.264.06.491.093.678.1v.776h-6.314v-.777c.187-.02.41-.059.659-.131.251-.073.47-.157.645-.252a.953.953 0 0 0 .444-.454c.087-.195.125-.41.125-.64v-11.207c0-.286-.045-.52-.137-.697a.83.83 0 0 0-.432-.398c-.112-.059-.319-.101-.617-.131s-.527-.053-.687-.067v-.777h6.314v.777c-.167 0-.392.045-.678.11-.287.064-.484.13-.594.196-.223.131-.373.286-.452.46a1.651 1.651 0 0 0-.111.647v5.405h6.066v-5.525c0-.286-.047-.52-.138-.697a.87.87 0 0 0-.436-.398c-.11-.059-.316-.101-.616-.132-.298-.03-.527-.053-.681-.067v-.776h6.303v.776c-.158 0-.387.045-.673.11-.286.065-.482.132-.596.197-.22.131-.373.285-.45.46-.075.176-.11.391-.11.647v11.194c0 .243.034.464.11.669.077.204.23.35.45.438.13.05.328.107.596.164.266.059.49.093.673.099v.776h-.125zM1469.851 1571.595h-5.456v-.637a5.02 5.02 0 0 0 .633-.115c.259-.063.474-.132.644-.2.235-.098.381-.214.444-.358.063-.138.095-.314.095-.523v-9.241c0-.24-.043-.426-.125-.562a.875.875 0 0 0-.414-.318c-.12-.05-.324-.083-.614-.108l-.663-.055v-.636H1470.353v.636c-.19 0-.415.04-.689.095a4.32 4.32 0 0 0-.586.156.877.877 0 0 0-.424.365 1.13 1.13 0 0 0-.117.524v9.233c0 .196.034.377.105.54.075.161.221.277.436.35.183.061.395.107.645.146.24.04.452.065.63.07v.637h-.125zM1512.563 1571.595h-5.456v-.637c.165-.02.375-.05.637-.115.258-.063.47-.132.645-.2.235-.098.381-.214.444-.358.06-.138.093-.314.093-.523v-9.241c0-.24-.043-.426-.128-.562a.844.844 0 0 0-.41-.318c-.121-.05-.326-.083-.616-.108l-.665-.055v-.636H1513.07v.636c-.192 0-.42.04-.69.095-.269.057-.465.11-.581.156-.203.091-.345.213-.428.365a1.13 1.13 0 0 0-.12.524v9.233c0 .196.035.377.11.54.073.161.217.277.438.35.176.061.391.107.639.146.24.04.454.065.632.07v.637h-.13zM1399.894 1558.842v3.792h-.61c-.114-.35-.331-.801-.641-1.361-.31-.562-.582-.98-.815-1.253-.077-.097-.203-.176-.373-.24a3.199 3.199 0 0 0-.552-.15 5.77 5.77 0 0 0-.645-.07c-.229-.02-.45-.02-.66-.02-.465 0-.818.02-1.08.05-.257.033-.443.1-.577.212a.837.837 0 0 0-.26.507 5.973 5.973 0 0 0-.057.922v8.564c0 .197.04.386.11.558a.64.64 0 0 0 .397.367c.116.043.294.09.55.144.253.057.46.087.618.093v.636H1389.681v-.636c.154-.02.349-.055.582-.124.241-.067.426-.138.553-.21.195-.096.323-.222.387-.378.07-.156.102-.336.102-.54v-9.131c0-.233-.041-.426-.116-.576a.767.767 0 0 0-.373-.34c-.101-.05-.282-.088-.543-.118a22.97 22.97 0 0 0-.592-.063v-.637zM1415.377 1558.842v3.792h-.606c-.116-.35-.333-.801-.639-1.361-.316-.562-.584-.98-.819-1.253a.874.874 0 0 0-.37-.24 3.122 3.122 0 0 0-.559-.15 5.679 5.679 0 0 0-.642-.07c-.23-.02-.446-.02-.657-.02-.47 0-.823.02-1.08.05-.258.033-.449.1-.577.212a.828.828 0 0 0-.261.507 5.772 5.772 0 0 0-.055.922v8.564c0 .197.036.386.107.558.071.174.201.296.396.367.113.043.3.09.553.144.248.057.458.087.619.093v.636h-5.621v-.636c.154-.02.35-.055.584-.124.233-.067.42-.138.552-.21.192-.096.324-.222.387-.378.067-.156.101-.336.101-.54v-9.131c0-.233-.043-.426-.115-.576a.758.758 0 0 0-.373-.34c-.1-.05-.278-.088-.54-.118a30.32 30.32 0 0 0-.596-.063v-.637zM1486.51 1558.842v3.792h-.605c-.118-.35-.333-.801-.643-1.361-.312-.562-.584-.98-.815-1.253a.887.887 0 0 0-.371-.24 3.146 3.146 0 0 0-.552-.15 5.901 5.901 0 0 0-.649-.07c-.229-.02-.448-.02-.657-.02-.468 0-.82.02-1.084.05-.254.033-.44.1-.572.212a.858.858 0 0 0-.26.507c-.04.219-.057.527-.057.922v8.564c0 .197.036.386.108.558.067.174.2.296.395.367.118.043.3.09.552.144.257.057.458.087.618.093v.636h-5.621v-.636c.153-.02.352-.055.587-.124.237-.067.42-.138.551-.21.19-.096.325-.222.388-.378a1.36 1.36 0 0 0 .097-.54v-9.131c0-.233-.04-.426-.118-.576a.72.72 0 0 0-.367-.34c-.103-.05-.282-.088-.54-.118-.265-.03-.464-.051-.597-.063v-.637zM1501.994 1558.842v3.792h-.602c-.122-.35-.335-.801-.645-1.361-.31-.562-.58-.98-.817-1.253a.874.874 0 0 0-.37-.24 3.199 3.199 0 0 0-.552-.15 5.779 5.779 0 0 0-.651-.07c-.223-.02-.442-.02-.651-.02-.468 0-.823.02-1.083.05-.26.033-.442.1-.578.212-.135.12-.22.29-.263.507a6.64 6.64 0 0 0-.053.922v8.564c0 .197.034.386.107.558.073.174.201.296.396.367.12.043.298.09.555.144.25.057.454.087.617.093v.636H1491.78v-.636c.154-.02.353-.055.59-.124.235-.067.42-.138.546-.21.198-.096.33-.222.391-.378.065-.156.101-.336.101-.54v-9.131c0-.233-.04-.426-.12-.576a.733.733 0 0 0-.372-.34c-.102-.05-.28-.088-.54-.118s-.458-.051-.596-.063v-.637zM1384.002 1562.598v-3.757h-10.799v.639c.17.02.396.036.678.077.286.039.472.077.557.121.18.087.315.207.381.35.072.145.104.326.104.547v9.168c0 .199-.028.373-.091.527-.065.15-.19.274-.393.373-.152.077-.361.146-.617.205a4.968 4.968 0 0 1-.618.111v.635h9.874v-3.072h-.639c-.113.455-.36.937-.738 1.452-.379.51-.74.79-1.085.84a6.568 6.568 0 0 1-.626.052c-.247.02-.525.02-.84.02h-1.903v-5.068h1.368c.438 0 .759.045.96.13.2.086.376.233.532.435.126.175.232.408.319.7.09.29.15.561.178.821h.641v-5h-.64a4.206 4.206 0 0 1-.187.915c-.097.318-.201.551-.31.693-.179.237-.376.39-.6.46-.224.073-.528.11-.893.11h-1.368v-3.824c0-.383.028-.683.079-.907a.838.838 0 0 1 .298-.502c.146-.114.348-.187.606-.22.255-.031.62-.05 1.09-.05h.747c.304 0 .561.02.77.037.221.026.442.069.677.131.228.063.394.148.491.256.262.288.535.722.82 1.306.291.586.472 1.015.55 1.291z" style="fill:#006863;fill-opacity:1;fill-rule:nonzero;stroke:none;stroke-width:2.02752" transform="matrix(1.33333 0 0 -1.33333 -1675.395 2173.903)"/></svg>